<?xml version="1.0" standalone="no"?>
<!DOCTYPE svg PUBLIC "-//W3C//DTD SVG 20010904//EN"
 "http://www.w3.org/TR/2001/REC-SVG-20010904/DTD/svg10.dtd">
<svg version="1.0" xmlns="http://www.w3.org/2000/svg"
 width="540.000000pt" height="540.000000pt" viewBox="0 0 540.000000 540.000000"
 preserveAspectRatio="xMidYMid meet">
<metadata>
Created by potrace 1.14, written by Peter Selinger 2001-2017
</metadata>
<g transform="translate(0.000000,540.000000) scale(0.100000,-0.100000)"
fill="#000000" stroke="none">
<path d="M0 2700 l0 -2700 2700 0 2700 0 0 2700 0 2700 -2700 0 -2700 0 0
-2700z m2360 930 c0 -478 2 -870 4 -870 2 0 33 14 68 30 36 17 109 42 164 57
92 25 114 27 309 27 163 0 230 -4 300 -18 95 -19 204 -52 219 -66 10 -10 -11
-240 -24 -259 -4 -7 -33 -1 -89 19 -118 43 -242 62 -406 62 -213 0 -348 -42
-482 -152 l-63 -51 0 -504 0 -505 425 0 425 0 0 175 0 175 -205 0 -206 0 3
133 3 132 353 3 352 2 0 -560 0 -560 -810 0 -810 0 0 1800 0 1800 235 0 235 0
0 -870z"/>
</g>
</svg>
